<svg width="300" height="41" viewBox="0 0 300 41" fill="none" xmlns="http://www.w3.org/2000/svg">
<g clip-path="url(#clip0_17_61)">
<rect width="300" height="41" fill="white"/>
<rect width="438" height="41" fill="#002060"/>
<rect x="34" y="4" width="262" height="33" fill="white"/>
<path d="M53.1301 16.3359H52.4055C52.2847 15.9046 52.164 15.5251 52.0432 15.1973C51.9397 14.8695 51.8103 14.5762 51.655 14.3174C51.517 14.0413 51.3617 13.7998 51.1892 13.5928C51.0167 13.3685 50.8183 13.1356 50.594 12.894C49.5588 11.8071 48.3512 11.2637 46.9709 11.2637C46.0566 11.2637 45.3147 11.5052 44.7454 11.9883C44.1933 12.4714 43.9172 13.127 43.9172 13.9551C43.9172 14.766 44.2537 15.5251 44.9265 16.2324C45.5994 16.9398 46.7035 17.7161 48.239 18.5615C50.2058 19.6312 51.6205 20.675 52.4832 21.6929C53.363 22.7108 53.803 23.8236 53.803 25.0312C53.803 25.7904 53.6477 26.4977 53.3372 27.1533C53.0266 27.8089 52.6039 28.3783 52.0691 28.8613C51.5343 29.3444 50.8959 29.724 50.1541 30C49.4122 30.276 48.6186 30.4141 47.7732 30.4141C47.1694 30.4141 46.5741 30.3623 45.9875 30.2588C45.401 30.1553 44.8316 29.9827 44.2795 29.7412C43.9862 29.6377 43.7188 29.5601 43.4773 29.5083C43.2358 29.4393 43.0374 29.4048 42.8821 29.4048C42.6578 29.4048 42.468 29.4997 42.3127 29.6895C42.1575 29.8792 42.0712 30.1121 42.054 30.3882H41.407L40.5271 24.1255H41.2C41.9418 25.937 42.7872 27.2655 43.7361 28.1108C44.685 28.939 45.8323 29.353 47.178 29.353C48.2649 29.353 49.1361 29.0511 49.7917 28.4473C50.4646 27.8434 50.801 27.0498 50.801 26.0664C50.801 25.6868 50.7579 25.3504 50.6716 25.0571C50.6026 24.7638 50.4991 24.5137 50.3611 24.3066C50.016 23.7546 49.4639 23.1852 48.7048 22.5986C47.963 22.012 47.0658 21.4255 46.0134 20.8389C45.1853 20.4076 44.4779 19.9762 43.8914 19.5449C43.3048 19.1136 42.8217 18.665 42.4421 18.1992C42.0798 17.7334 41.8124 17.2503 41.6399 16.75C41.4674 16.2497 41.3811 15.7062 41.3811 15.1196C41.3811 13.4806 41.9504 12.2039 43.0891 11.2896C43.5722 10.8927 44.107 10.5908 44.6936 10.3838C45.2802 10.1595 45.8582 10.0474 46.4275 10.0474C46.9451 10.0474 47.4626 10.1077 47.9802 10.2285C48.5151 10.332 49.0585 10.4873 49.6106 10.6943C49.8866 10.8151 50.1368 10.9014 50.3611 10.9531C50.5854 11.0049 50.7751 11.0308 50.9304 11.0308C51.4135 11.0308 51.724 10.703 51.8621 10.0474H52.4832L53.1301 16.3359ZM61.6184 11.6777C60.7903 11.6777 60.1088 11.7209 59.574 11.8071C59.0564 11.8934 58.6251 12.0745 58.28 12.3506C57.9522 12.6266 57.6848 13.0148 57.4778 13.5151C57.288 13.9982 57.1069 14.6452 56.9343 15.4561H56.2097L56.3909 10.4355H73.0569L73.238 15.4561H72.5134C72.3409 14.6452 72.1511 13.9982 71.9441 13.5151C71.7543 13.0148 71.4955 12.6266 71.1677 12.3506C70.8399 12.0745 70.4086 11.8934 69.8738 11.8071C69.3389 11.7209 68.6488 11.6777 67.8035 11.6777H66.2249V26.8169C66.2249 27.3517 66.2594 27.783 66.3284 28.1108C66.3974 28.4386 66.5268 28.6974 66.7166 28.8872C66.9236 29.077 67.2083 29.215 67.5706 29.3013C67.9501 29.3703 68.4418 29.422 69.0457 29.4565V30H60.4539V29.4565C61.0577 29.422 61.5408 29.3703 61.9031 29.3013C62.2654 29.215 62.5414 29.0684 62.7312 28.8613C62.9382 28.637 63.0676 28.3351 63.1194 27.9556C63.1884 27.576 63.2229 27.0757 63.2229 26.4546V11.6777H61.6184ZM94.5364 11.0308C94.1396 11.048 93.7859 11.1084 93.4753 11.2119C93.182 11.3154 92.8801 11.4966 92.5696 11.7554C92.2763 11.9969 91.9571 12.3333 91.6121 12.7646C91.2843 13.1787 90.8961 13.7135 90.4475 14.3691L86.074 21.0459V26.8169C86.074 27.369 86.1085 27.8175 86.1775 28.1626C86.2465 28.4904 86.3845 28.7492 86.5916 28.939C86.8158 29.1287 87.1264 29.2581 87.5232 29.3271C87.92 29.3962 88.4462 29.4393 89.1018 29.4565V30H80.0701V29.4565C80.7429 29.422 81.2778 29.3703 81.6746 29.3013C82.0714 29.215 82.3647 29.0684 82.5544 28.8613C82.7615 28.6543 82.8909 28.361 82.9426 27.9814C83.0116 27.6019 83.0461 27.0929 83.0461 26.4546V21.3306L79.1902 15.6631C78.4483 14.6107 77.8445 13.7826 77.3787 13.1787C76.9301 12.5576 76.5419 12.0918 76.2141 11.7812C75.8863 11.4707 75.5844 11.2723 75.3083 11.186C75.0496 11.0825 74.7476 11.0308 74.4026 11.0308V10.4355H82.658V11.0308H81.9333C81.019 11.0825 80.5618 11.3586 80.5618 11.8589C80.5618 12.2557 80.7343 12.7043 81.0793 13.2046L85.4529 19.752L89.6711 13.0752C89.9472 12.6784 90.0852 12.3161 90.0852 11.9883C90.0852 11.6432 89.9386 11.4017 89.6453 11.2637C89.352 11.1084 88.8171 11.0308 88.0408 11.0308V10.4355H94.5364V11.0308ZM112.755 24.876L111.306 30H95.4421V29.4565C95.977 29.422 96.4083 29.3617 96.7361 29.2754C97.0811 29.1891 97.3399 29.0511 97.5125 28.8613C97.7022 28.6715 97.8316 28.4128 97.9006 28.085C97.9696 27.7572 98.0042 27.3345 98.0042 26.8169V13.6704C98.0042 13.1528 97.9696 12.7301 97.9006 12.4023C97.8489 12.0745 97.7281 11.8158 97.5383 11.626C97.3486 11.4362 97.0811 11.2982 96.7361 11.2119C96.4083 11.1257 95.977 11.0653 95.4421 11.0308V10.4355H103.749V11.0308C103.163 11.0653 102.688 11.1257 102.326 11.2119C101.964 11.2809 101.688 11.4189 101.498 11.626C101.308 11.8158 101.179 12.0745 101.11 12.4023C101.041 12.7301 101.006 13.1528 101.006 13.6704V27.645C101.006 27.9038 101.032 28.1195 101.084 28.292C101.153 28.4473 101.282 28.568 101.472 28.6543C101.662 28.7406 101.92 28.8009 102.248 28.8354C102.576 28.8527 103.016 28.8613 103.568 28.8613H105.535C106.794 28.8613 107.838 28.7147 108.666 28.4214C109.512 28.1281 110.202 27.6795 110.737 27.0757C110.944 26.8341 111.142 26.5322 111.332 26.1699C111.539 25.8076 111.763 25.3763 112.005 24.876H112.755ZM116.508 13.6704C116.508 13.1183 116.473 12.6784 116.404 12.3506C116.352 12.0228 116.223 11.764 116.016 11.5742C115.809 11.3844 115.516 11.255 115.136 11.186C114.756 11.117 114.256 11.0653 113.635 11.0308V10.4355H122.408V11.0308C121.787 11.048 121.287 11.0998 120.907 11.186C120.527 11.255 120.234 11.3844 120.027 11.5742C119.82 11.764 119.682 12.0314 119.613 12.3765C119.544 12.7043 119.51 13.1356 119.51 13.6704V26.8169C119.51 27.3517 119.544 27.7917 119.613 28.1367C119.699 28.4645 119.846 28.7233 120.053 28.9131C120.26 29.1029 120.553 29.2409 120.933 29.3271C121.312 29.3962 121.804 29.4393 122.408 29.4565V30H113.635V29.4565C114.256 29.4393 114.756 29.3962 115.136 29.3271C115.516 29.2409 115.8 29.1029 115.99 28.9131C116.197 28.7233 116.335 28.4645 116.404 28.1367C116.473 27.8089 116.508 27.369 116.508 26.8169V13.6704ZM140.627 16.6982C140.489 16.2152 140.351 15.8011 140.213 15.4561C140.075 15.0938 139.928 14.7746 139.773 14.4985C139.635 14.2052 139.471 13.9465 139.281 13.7222C139.108 13.4979 138.901 13.265 138.66 13.0234C138.073 12.4196 137.4 11.971 136.641 11.6777C135.899 11.3672 135.106 11.2119 134.26 11.2119C133.191 11.2119 132.216 11.4189 131.336 11.833C130.474 12.2471 129.732 12.8423 129.111 13.6187C128.507 14.3778 128.041 15.3008 127.713 16.3877C127.385 17.4746 127.221 18.6823 127.221 20.0107C127.221 21.736 127.454 23.2456 127.92 24.5396C128.386 25.8335 129.05 26.8428 129.913 27.5674C131.207 28.6025 132.751 29.1201 134.545 29.1201C135.77 29.1201 136.9 28.8872 137.935 28.4214C138.97 27.9556 140.04 27.1965 141.144 26.144L141.662 26.6616C140.765 27.8521 139.617 28.7751 138.22 29.4307C136.84 30.0863 135.304 30.4141 133.614 30.4141C132.147 30.4141 130.81 30.1725 129.602 29.6895C128.395 29.2064 127.359 28.5335 126.497 27.6709C125.634 26.791 124.961 25.7386 124.478 24.5137C124.012 23.2887 123.78 21.9258 123.78 20.4248C123.78 18.7168 124.073 17.1813 124.659 15.8184C125.246 14.4382 126.109 13.2822 127.247 12.3506C128.144 11.626 129.154 11.0653 130.275 10.6685C131.397 10.2544 132.527 10.0474 133.665 10.0474C135.132 10.0474 136.581 10.2889 138.013 10.772C138.496 10.9445 138.884 11.0308 139.177 11.0308C139.471 11.0308 139.721 10.9445 139.928 10.772C140.152 10.5994 140.308 10.3579 140.394 10.0474H141.015L141.3 16.6982H140.627ZM156.413 26.8169C156.413 27.3517 156.447 27.7917 156.516 28.1367C156.585 28.4645 156.715 28.7233 156.905 28.9131C157.112 29.1029 157.396 29.2409 157.759 29.3271C158.121 29.3962 158.595 29.4393 159.182 29.4565V30H150.901V29.4565C151.47 29.4048 151.91 29.3358 152.22 29.2495C152.548 29.1632 152.798 29.0166 152.971 28.8096C153.143 28.6025 153.247 28.3179 153.281 27.9556C153.333 27.576 153.359 27.0757 153.359 26.4546V13.6704C153.359 13.1356 153.333 12.7129 153.281 12.4023C153.23 12.0745 153.118 11.8244 152.945 11.6519C152.773 11.4621 152.522 11.3241 152.195 11.2378C151.867 11.1515 151.435 11.0825 150.901 11.0308V10.4355H158.69C160.157 10.4355 161.476 10.6426 162.65 11.0566C163.84 11.4707 164.737 12.0142 165.341 12.687C166.083 13.5669 166.454 14.6021 166.454 15.7925C166.454 16.7759 166.195 17.6903 165.677 18.5356C165.177 19.3638 164.487 20.0194 163.607 20.5024C162.969 20.8475 162.236 21.0977 161.407 21.2529C160.597 21.4082 159.605 21.4858 158.431 21.4858C158.052 21.4858 157.715 21.4858 157.422 21.4858C157.146 21.4686 156.81 21.4513 156.413 21.4341V26.8169ZM156.413 20.2178C156.758 20.2523 157.043 20.2782 157.267 20.2954C157.508 20.3127 157.776 20.3213 158.069 20.3213C161.502 20.3213 163.219 18.8721 163.219 15.9736C163.219 14.4382 162.745 13.3167 161.796 12.6094C160.864 11.902 159.389 11.5483 157.37 11.5483C156.974 11.5483 156.715 11.6174 156.594 11.7554C156.473 11.8761 156.413 12.1436 156.413 12.5576V20.2178ZM187.778 30H180.247V29.4565C180.506 29.4565 180.722 29.4565 180.894 29.4565C181.067 29.4393 181.205 29.422 181.308 29.4048C181.429 29.3703 181.533 29.3444 181.619 29.3271C181.705 29.2926 181.791 29.2495 181.878 29.1978C182.016 29.1115 182.119 29.008 182.188 28.8872C182.274 28.7492 182.318 28.6112 182.318 28.4731C182.318 27.9901 182.128 27.3172 181.748 26.4546L180.506 23.6338H172.794L171.423 27.0757C171.354 27.2655 171.293 27.4639 171.241 27.6709C171.207 27.8607 171.19 28.0505 171.19 28.2402C171.19 28.637 171.345 28.939 171.656 29.146C171.966 29.353 172.484 29.4565 173.208 29.4565V30H167.334V29.4565C167.696 29.4393 168.007 29.3789 168.265 29.2754C168.524 29.1719 168.783 28.9562 169.042 28.6284C169.301 28.2834 169.577 27.8003 169.87 27.1792C170.18 26.5409 170.569 25.6782 171.034 24.5913L177.168 10.0991H177.737L185.113 26.8687C185.354 27.4207 185.561 27.8607 185.734 28.1885C185.923 28.5163 186.113 28.7751 186.303 28.9648C186.493 29.1374 186.7 29.2581 186.924 29.3271C187.166 29.3962 187.45 29.4393 187.778 29.4565V30ZM180.118 22.4434L176.702 14.2915L173.286 22.4434H180.118ZM191.375 13.6704C191.375 13.1183 191.341 12.6784 191.272 12.3506C191.22 12.0228 191.091 11.764 190.884 11.5742C190.677 11.3844 190.383 11.255 190.004 11.186C189.624 11.117 189.124 11.0653 188.503 11.0308V10.4355H197.276V11.0308C196.655 11.048 196.154 11.0998 195.775 11.186C195.395 11.255 195.102 11.3844 194.895 11.5742C194.688 11.764 194.55 12.0314 194.481 12.3765C194.412 12.7043 194.377 13.1356 194.377 13.6704V26.8169C194.377 27.3517 194.412 27.7917 194.481 28.1367C194.567 28.4645 194.714 28.7233 194.921 28.9131C195.128 29.1029 195.421 29.2409 195.801 29.3271C196.18 29.3962 196.672 29.4393 197.276 29.4565V30H188.503V29.4565C189.124 29.4393 189.624 29.3962 190.004 29.3271C190.383 29.2409 190.668 29.1029 190.858 28.9131C191.065 28.7233 191.203 28.4645 191.272 28.1367C191.341 27.8089 191.375 27.369 191.375 26.8169V13.6704ZM215.417 30.3364L202.348 14.0845V25.6523C202.348 26.4115 202.382 27.0326 202.451 27.5156C202.538 27.9814 202.684 28.3524 202.891 28.6284C203.098 28.9045 203.383 29.1029 203.745 29.2236C204.108 29.3444 204.573 29.422 205.143 29.4565V30H198.207V29.4565C198.811 29.4048 199.294 29.3271 199.656 29.2236C200.036 29.1029 200.321 28.9045 200.51 28.6284C200.718 28.3524 200.856 27.9814 200.925 27.5156C200.994 27.0326 201.028 26.4115 201.028 25.6523V12.6611C200.735 12.3161 200.485 12.04 200.278 11.833C200.071 11.6087 199.864 11.4448 199.656 11.3413C199.449 11.2205 199.234 11.1429 199.01 11.1084C198.785 11.0566 198.518 11.0308 198.207 11.0308V10.4355H203.254L214.615 24.7466V14.7832C214.615 12.9889 214.33 11.8848 213.76 11.4707C213.536 11.3327 213.286 11.2378 213.01 11.186C212.751 11.117 212.346 11.0653 211.794 11.0308V10.4355H218.703V11.0308C218.151 11.0653 217.737 11.1257 217.461 11.2119C217.202 11.2982 216.978 11.4103 216.788 11.5483C216.202 11.9279 215.908 13.0062 215.908 14.7832V30.3364H215.417ZM225.07 11.6777C224.241 11.6777 223.56 11.7209 223.025 11.8071C222.508 11.8934 222.076 12.0745 221.731 12.3506C221.403 12.6266 221.136 13.0148 220.929 13.5151C220.739 13.9982 220.558 14.6452 220.385 15.4561H219.661L219.842 10.4355H236.508L236.689 15.4561H235.965C235.792 14.6452 235.602 13.9982 235.395 13.5151C235.205 13.0148 234.947 12.6266 234.619 12.3506C234.291 12.0745 233.86 11.8934 233.325 11.8071C232.79 11.7209 232.1 11.6777 231.255 11.6777H229.676V26.8169C229.676 27.3517 229.711 27.783 229.78 28.1108C229.849 28.4386 229.978 28.6974 230.168 28.8872C230.375 29.077 230.659 29.215 231.022 29.3013C231.401 29.3703 231.893 29.422 232.497 29.4565V30H223.905V29.4565C224.509 29.422 224.992 29.3703 225.354 29.3013C225.717 29.215 225.993 29.0684 226.182 28.8613C226.389 28.637 226.519 28.3351 226.571 27.9556C226.64 27.576 226.674 27.0757 226.674 26.4546V11.6777H225.07ZM240.597 13.6704C240.597 13.1183 240.562 12.6784 240.493 12.3506C240.442 12.0228 240.312 11.764 240.105 11.5742C239.898 11.3844 239.605 11.255 239.225 11.186C238.846 11.117 238.345 11.0653 237.724 11.0308V10.4355H246.497V11.0308C245.876 11.048 245.376 11.0998 244.996 11.186C244.617 11.255 244.323 11.3844 244.116 11.5742C243.909 11.764 243.771 12.0314 243.702 12.3765C243.633 12.7043 243.599 13.1356 243.599 13.6704V26.8169C243.599 27.3517 243.633 27.7917 243.702 28.1367C243.789 28.4645 243.935 28.7233 244.142 28.9131C244.349 29.1029 244.643 29.2409 245.022 29.3271C245.402 29.3962 245.893 29.4393 246.497 29.4565V30H237.724V29.4565C238.345 29.4393 238.846 29.3962 239.225 29.3271C239.605 29.2409 239.89 29.1029 240.079 28.9131C240.286 28.7233 240.424 28.4645 240.493 28.1367C240.562 27.8089 240.597 27.369 240.597 26.8169V13.6704ZM264.638 30.3364L251.57 14.0845V25.6523C251.57 26.4115 251.604 27.0326 251.673 27.5156C251.759 27.9814 251.906 28.3524 252.113 28.6284C252.32 28.9045 252.605 29.1029 252.967 29.2236C253.329 29.3444 253.795 29.422 254.365 29.4565V30H247.429V29.4565C248.033 29.4048 248.516 29.3271 248.878 29.2236C249.258 29.1029 249.542 28.9045 249.732 28.6284C249.939 28.3524 250.077 27.9814 250.146 27.5156C250.215 27.0326 250.25 26.4115 250.25 25.6523V12.6611C249.956 12.3161 249.706 12.04 249.499 11.833C249.292 11.6087 249.085 11.4448 248.878 11.3413C248.671 11.2205 248.455 11.1429 248.231 11.1084C248.007 11.0566 247.74 11.0308 247.429 11.0308V10.4355H252.475L263.836 24.7466V14.7832C263.836 12.9889 263.552 11.8848 262.982 11.4707C262.758 11.3327 262.508 11.2378 262.232 11.186C261.973 11.117 261.567 11.0653 261.015 11.0308V10.4355H267.925V11.0308C267.373 11.0653 266.959 11.1257 266.683 11.2119C266.424 11.2982 266.2 11.4103 266.01 11.5483C265.423 11.9279 265.13 13.0062 265.13 14.7832V30.3364H264.638ZM289.327 20.0884C288.896 20.1229 288.542 20.1833 288.266 20.2695C288.007 20.3385 287.8 20.4593 287.645 20.6318C287.507 20.7871 287.412 21.0114 287.36 21.3047C287.308 21.5807 287.282 21.9344 287.282 22.3657V28.3438C286.989 28.6025 286.558 28.8613 285.989 29.1201C285.419 29.3617 284.781 29.5859 284.073 29.793C283.383 29.9827 282.667 30.1294 281.926 30.2329C281.201 30.3537 280.519 30.4141 279.881 30.4141C278.242 30.4141 276.724 30.1466 275.326 29.6118C273.946 29.077 272.764 28.292 271.781 27.2568C270.953 26.377 270.34 25.3763 269.944 24.2549C269.547 23.1335 269.348 21.8568 269.348 20.4248C269.348 18.9066 269.599 17.5177 270.099 16.2583C270.599 14.9816 271.289 13.8861 272.169 12.9717C273.066 12.0573 274.127 11.3413 275.352 10.8237C276.594 10.3062 277.957 10.0474 279.441 10.0474C280.787 10.0474 282.133 10.2716 283.478 10.7202C284.048 10.9272 284.488 11.0308 284.798 11.0308C285.109 11.0308 285.385 10.9359 285.626 10.7461C285.868 10.5563 286.032 10.3234 286.118 10.0474H286.739L286.998 16.2842H286.325C286.135 15.8356 285.963 15.4474 285.807 15.1196C285.652 14.7746 285.488 14.4727 285.316 14.2139C285.16 13.9378 284.997 13.6963 284.824 13.4893C284.651 13.265 284.453 13.0493 284.229 12.8423C283.056 11.7554 281.632 11.2119 279.959 11.2119C278.889 11.2119 277.897 11.4189 276.983 11.833C276.086 12.2471 275.318 12.8423 274.679 13.6187C274.076 14.3605 273.593 15.3439 273.23 16.5688C272.868 17.7765 272.687 19.0446 272.687 20.373C272.687 21.7533 272.868 22.9954 273.23 24.0996C273.593 25.1865 274.11 26.1095 274.783 26.8687C275.456 27.6278 276.267 28.2144 277.216 28.6284C278.182 29.0425 279.269 29.2495 280.476 29.2495C281.011 29.2495 281.511 29.2064 281.977 29.1201C282.46 29.0166 282.883 28.8872 283.245 28.7319C283.608 28.5767 283.892 28.3955 284.099 28.1885C284.306 27.9642 284.41 27.7313 284.41 27.4897V22.7021C284.41 22.1673 284.384 21.736 284.332 21.4082C284.281 21.0804 284.16 20.8302 283.97 20.6577C283.797 20.4679 283.539 20.3385 283.194 20.2695C282.849 20.1833 282.383 20.1229 281.796 20.0884V19.5449H289.327V20.0884Z" fill="#002060"/>
<path d="M25.5078 7.55469C25.3125 7.84115 25.1302 8.10156 24.9609 8.33594C24.7917 8.57031 24.6745 8.74609 24.6094 8.86328C24.5443 8.98047 24.4466 9.18229 24.3164 9.46875C24.1862 9.74219 24.0495 10.0547 23.9062 10.4062C23.099 12.3724 22.5651 13.5703 22.3047 14C22.2917 14 22.2656 14.0391 22.2266 14.1172C22.1745 13.9609 22.1354 13.8568 22.1094 13.8047C21.7578 12.6849 21.4714 11.8971 21.25 11.4414C21.0417 10.9727 20.7878 10.5885 20.4883 10.2891C20.1888 9.98958 19.7396 9.66406 19.1406 9.3125C18.2031 8.7526 17.2461 8.47266 16.2695 8.47266C15.2799 8.47266 14.401 8.64193 13.6328 8.98047C12.8776 9.31901 12.2852 9.80078 11.8555 10.4258C11.4388 11.0508 11.2305 11.7474 11.2305 12.5156C11.2305 13.2708 11.3997 13.9349 11.7383 14.5078C12.0898 15.0807 12.6432 15.582 13.3984 16.0117C14.1667 16.4414 15.0977 16.7865 16.1914 17.0469L19.4727 17.8086C21.0872 18.1862 22.3763 18.6875 23.3398 19.3125C24.3034 19.9375 25.0651 20.7513 25.625 21.7539C26.2109 22.7695 26.5039 23.9284 26.5039 25.2305C26.5039 26.7018 26.1328 28.0104 25.3906 29.1562C24.6615 30.3021 23.6263 31.2005 22.2852 31.8516C20.957 32.4896 19.4596 32.8086 17.793 32.8086C16.4779 32.8086 14.9284 32.5807 13.1445 32.125L10.8984 31.5586C9.92188 31.3503 9.19271 31.2461 8.71094 31.2461C8.15104 31.2461 7.70182 31.2982 7.36328 31.4023C7.03776 31.5065 6.63411 31.7083 6.15234 32.0078L5.99609 31.7148C6.59505 30.8164 7.2526 29.651 7.96875 28.2188C8.6849 26.7734 9.16016 25.6211 9.39453 24.7617L9.74609 24.8789C10.0195 26.9362 10.8333 28.5247 12.1875 29.6445C13.5547 30.7643 15.3516 31.3242 17.5781 31.3242C18.6589 31.3242 19.6354 31.1484 20.5078 30.7969C21.3802 30.4453 22.0573 29.9505 22.5391 29.3125C23.0208 28.6615 23.2617 27.9193 23.2617 27.0859C23.2617 26.1484 23.0339 25.2956 22.5781 24.5273C22.1354 23.7591 21.4974 23.1406 20.6641 22.6719C20 22.2812 19.2904 21.9753 18.5352 21.7539C17.793 21.5195 16.543 21.2396 14.7852 20.9141C13.6393 20.6797 12.6758 20.4128 11.8945 20.1133C11.1133 19.8138 10.4688 19.4492 9.96094 19.0195C9.45312 18.5898 9.02344 18.0625 8.67188 17.4375C8.08594 16.3698 7.79297 15.1849 7.79297 13.8828C7.79297 12.4896 8.13151 11.2721 8.80859 10.2305C9.48568 9.17578 10.4492 8.36198 11.6992 7.78906C12.9492 7.21615 14.3815 6.92969 15.9961 6.92969C16.8164 6.92969 17.6172 6.99479 18.3984 7.125C19.1797 7.25521 20.0846 7.47005 21.1133 7.76953C22.0378 8.00391 22.7409 8.12109 23.2227 8.12109C23.8477 8.12109 24.5443 7.90625 25.3125 7.47656L25.5078 7.55469ZM26.7383 8.35547L26.543 8.6875C26.0872 9.44271 25.638 10.2956 25.1953 11.2461C24.8047 12.0273 24.4401 12.776 24.1016 13.4922C23.763 14.2083 23.5807 14.5794 23.5547 14.6055L23.0664 14.3906L24.7852 10.875L26.2305 8.12109L26.7383 8.35547ZM21.0352 12.2812C19.5898 10.7578 18.0534 9.99609 16.4258 9.99609C15.4232 9.99609 14.5964 10.2891 13.9453 10.875C13.3073 11.4479 12.9883 12.1706 12.9883 13.043C12.9883 13.5768 13.1185 14.0586 13.3789 14.4883C13.6523 14.9049 14.1732 15.4062 14.9414 15.9922L15.0977 16.1289L15.0195 16.2461C13.2878 15.4909 12.4219 14.3841 12.4219 12.9258C12.4219 11.8971 12.7865 11.0703 13.5156 10.4453C14.2578 9.80729 15.2148 9.48828 16.3867 9.48828C17.5195 9.48828 18.5026 9.72917 19.3359 10.2109C20.1693 10.6797 20.7747 11.3438 21.1523 12.2031L21.0352 12.2812ZM25.5078 20.0352C27.2917 21.3893 28.1836 23.2318 28.1836 25.5625C28.1836 26.7865 27.9297 27.9453 27.4219 29.0391C26.9141 30.1198 26.2044 31.0638 25.293 31.8711C24.3815 32.6784 23.3073 33.3099 22.0703 33.7656C20.8464 34.2214 19.5638 34.4492 18.2227 34.4492C16.9987 34.4492 15.7357 34.3125 14.4336 34.0391L11.3086 33.2383C10.5924 33.082 9.81771 33.0039 8.98438 33.0039C8.25521 33.0039 7.57812 33.1471 6.95312 33.4336L6.69922 32.8477C7.05078 32.6784 7.3763 32.5612 7.67578 32.4961C7.97526 32.431 8.34635 32.3984 8.78906 32.3984C9.58333 32.3984 10.4622 32.5221 11.4258 32.7695L14.4336 33.4727C15.5404 33.7461 16.8034 33.8828 18.2227 33.8828C19.4727 33.8828 20.6641 33.668 21.7969 33.2383C22.9427 32.7956 23.9518 32.1901 24.8242 31.4219C25.6966 30.6406 26.3802 29.7357 26.875 28.707C27.3698 27.6784 27.6172 26.6172 27.6172 25.5234C27.6172 23.4271 26.9141 21.6367 25.5078 20.1523V20.0352ZM11.582 25.6406C11.8555 26.8906 12.2982 27.9062 12.9102 28.6875C13.5221 29.4557 14.375 30.1068 15.4688 30.6406V30.7969C14.1667 30.3932 13.1771 29.8008 12.5 29.0195C11.8229 28.2253 11.3477 27.138 11.0742 25.7578L11.582 25.6406ZM9.17969 19.3125L9.82422 19.6836C9.99349 19.9831 10.2279 20.2435 10.5273 20.4648C10.8268 20.6732 11.2044 20.8685 11.6602 21.0508C12.1289 21.2201 12.7865 21.4023 13.6328 21.5977L16.7383 22.3984C17.9492 22.6849 18.8672 22.9323 19.4922 23.1406C20.1302 23.3359 20.6445 23.5378 21.0352 23.7461C21.4258 23.9544 21.7383 24.2018 21.9727 24.4883C22.207 24.7747 22.3958 25.1198 22.5391 25.5234L22.3828 25.6016C21.9531 25.0938 21.5495 24.7161 21.1719 24.4688C20.7943 24.2214 20.2995 24 19.6875 23.8047C19.0755 23.6094 18.0273 23.3294 16.543 22.9648C14.9674 22.6003 13.776 22.3008 12.9688 22.0664C12.1615 21.832 11.5104 21.5977 11.0156 21.3633C10.5339 21.1289 10.1497 20.862 9.86328 20.5625C9.4987 20.1589 9.27083 19.7422 9.17969 19.3125Z" fill="#FFFF00"/>
</g>
<defs>
<clipPath id="clip0_17_61">
<rect width="300" height="41" fill="white"/>
</clipPath>
</defs>
</svg>
