<svg width="152" height="48" viewBox="0 0 152 48" fill="none" xmlns="http://www.w3.org/2000/svg">
<g clip-path="url(#clip0_17_55)">
<rect width="152" height="48" fill="white"/>
<rect width="152" height="48" fill="#002060"/>
<rect x="34" y="4" width="114" height="40" fill="white"/>
<path d="M53.1521 20.3359H52.4275C52.3067 19.9046 52.186 19.5251 52.0652 19.1973C51.9617 18.8695 51.8323 18.5762 51.677 18.3174C51.539 18.0413 51.3837 17.7998 51.2112 17.5928C51.0387 17.3685 50.8403 17.1356 50.616 16.894C49.5808 15.8071 48.3731 15.2637 46.9929 15.2637C46.0785 15.2637 45.3367 15.5052 44.7673 15.9883C44.2153 16.4714 43.9392 17.127 43.9392 17.9551C43.9392 18.766 44.2756 19.5251 44.9485 20.2324C45.6213 20.9398 46.7255 21.7161 48.261 22.5615C50.2278 23.6312 51.6425 24.675 52.5051 25.6929C53.385 26.7108 53.825 27.8236 53.825 29.0312C53.825 29.7904 53.6697 30.4977 53.3591 31.1533C53.0486 31.8089 52.6259 32.3783 52.0911 32.8613C51.5562 33.3444 50.9179 33.724 50.176 34C49.4342 34.276 48.6405 34.4141 47.7952 34.4141C47.1913 34.4141 46.5961 34.3623 46.0095 34.2588C45.4229 34.1553 44.8536 33.9827 44.3015 33.7412C44.0082 33.6377 43.7408 33.5601 43.4993 33.5083C43.2577 33.4393 43.0593 33.4048 42.9041 33.4048C42.6798 33.4048 42.49 33.4997 42.3347 33.6895C42.1794 33.8792 42.0932 34.1121 42.0759 34.3882H41.429L40.5491 28.1255H41.2219C41.9638 29.937 42.8092 31.2655 43.7581 32.1108C44.7069 32.939 45.8542 33.353 47.2 33.353C48.2869 33.353 49.1581 33.0511 49.8137 32.4473C50.4866 31.8434 50.823 31.0498 50.823 30.0664C50.823 29.6868 50.7799 29.3504 50.6936 29.0571C50.6246 28.7638 50.5211 28.5137 50.3831 28.3066C50.038 27.7546 49.4859 27.1852 48.7268 26.5986C47.9849 26.012 47.0878 25.4255 46.0354 24.8389C45.2073 24.4076 44.4999 23.9762 43.9133 23.5449C43.3267 23.1136 42.8437 22.665 42.4641 22.1992C42.1018 21.7334 41.8344 21.2503 41.6619 20.75C41.4893 20.2497 41.4031 19.7062 41.4031 19.1196C41.4031 17.4806 41.9724 16.2039 43.1111 15.2896C43.5942 14.8927 44.129 14.5908 44.7156 14.3838C45.3022 14.1595 45.8801 14.0474 46.4495 14.0474C46.967 14.0474 47.4846 14.1077 48.0022 14.2285C48.537 14.332 49.0805 14.4873 49.6326 14.6943C49.9086 14.8151 50.1588 14.9014 50.3831 14.9531C50.6073 15.0049 50.7971 15.0308 50.9524 15.0308C51.4355 15.0308 51.746 14.703 51.884 14.0474H52.5051L53.1521 20.3359ZM61.6404 15.6777C60.8123 15.6777 60.1308 15.7209 59.5959 15.8071C59.0784 15.8934 58.6471 16.0745 58.302 16.3506C57.9742 16.6266 57.7068 17.0148 57.4998 17.5151C57.31 17.9982 57.1288 18.6452 56.9563 19.4561H56.2317L56.4128 14.4355H73.0789L73.26 19.4561H72.5354C72.3629 18.6452 72.1731 17.9982 71.9661 17.5151C71.7763 17.0148 71.5175 16.6266 71.1897 16.3506C70.8619 16.0745 70.4306 15.8934 69.8958 15.8071C69.3609 15.7209 68.6708 15.6777 67.8254 15.6777H66.2468V30.8169C66.2468 31.3517 66.2813 31.783 66.3503 32.1108C66.4194 32.4386 66.5487 32.6974 66.7385 32.8872C66.9456 33.077 67.2302 33.215 67.5925 33.3013C67.9721 33.3703 68.4638 33.422 69.0676 33.4565V34H60.4758V33.4565C61.0797 33.422 61.5627 33.3703 61.925 33.3013C62.2874 33.215 62.5634 33.0684 62.7532 32.8613C62.9602 32.637 63.0896 32.3351 63.1414 31.9556C63.2104 31.576 63.2449 31.0757 63.2449 30.4546V15.6777H61.6404ZM94.5583 15.0308C94.1615 15.048 93.8079 15.1084 93.4973 15.2119C93.204 15.3154 92.9021 15.4966 92.5916 15.7554C92.2983 15.9969 91.9791 16.3333 91.634 16.7646C91.3062 17.1787 90.9181 17.7135 90.4695 18.3691L86.0959 25.0459V30.8169C86.0959 31.369 86.1305 31.8175 86.1995 32.1626C86.2685 32.4904 86.4065 32.7492 86.6135 32.939C86.8378 33.1287 87.1484 33.2581 87.5452 33.3271C87.942 33.3962 88.4682 33.4393 89.1238 33.4565V34H80.092V33.4565C80.7649 33.422 81.2997 33.3703 81.6965 33.3013C82.0933 33.215 82.3866 33.0684 82.5764 32.8613C82.7834 32.6543 82.9128 32.361 82.9646 31.9814C83.0336 31.6019 83.0681 31.0929 83.0681 30.4546V25.3306L79.2122 19.6631C78.4703 18.6107 77.8665 17.7826 77.4006 17.1787C76.9521 16.5576 76.5639 16.0918 76.2361 15.7812C75.9083 15.4707 75.6064 15.2723 75.3303 15.186C75.0715 15.0825 74.7696 15.0308 74.4246 15.0308V14.4355H82.6799V15.0308H81.9553C81.0409 15.0825 80.5837 15.3586 80.5837 15.8589C80.5837 16.2557 80.7563 16.7043 81.1013 17.2046L85.4749 23.752L89.6931 17.0752C89.9692 16.6784 90.1072 16.3161 90.1072 15.9883C90.1072 15.6432 89.9605 15.4017 89.6672 15.2637C89.3739 15.1084 88.8391 15.0308 88.0627 15.0308V14.4355H94.5583V15.0308ZM112.777 28.876L111.328 34H95.4641V33.4565C95.9989 33.422 96.4303 33.3617 96.7581 33.2754C97.1031 33.1891 97.3619 33.0511 97.5344 32.8613C97.7242 32.6715 97.8536 32.4128 97.9226 32.085C97.9916 31.7572 98.0261 31.3345 98.0261 30.8169V17.6704C98.0261 17.1528 97.9916 16.7301 97.9226 16.4023C97.8708 16.0745 97.7501 15.8158 97.5603 15.626C97.3705 15.4362 97.1031 15.2982 96.7581 15.2119C96.4303 15.1257 95.9989 15.0653 95.4641 15.0308V14.4355H103.771V15.0308C103.185 15.0653 102.71 15.1257 102.348 15.2119C101.986 15.2809 101.71 15.4189 101.52 15.626C101.33 15.8158 101.201 16.0745 101.132 16.4023C101.063 16.7301 101.028 17.1528 101.028 17.6704V31.645C101.028 31.9038 101.054 32.1195 101.106 32.292C101.175 32.4473 101.304 32.568 101.494 32.6543C101.684 32.7406 101.942 32.8009 102.27 32.8354C102.598 32.8527 103.038 32.8613 103.59 32.8613H105.557C106.816 32.8613 107.86 32.7147 108.688 32.4214C109.534 32.1281 110.224 31.6795 110.759 31.0757C110.966 30.8341 111.164 30.5322 111.354 30.1699C111.561 29.8076 111.785 29.3763 112.027 28.876H112.777ZM116.53 17.6704C116.53 17.1183 116.495 16.6784 116.426 16.3506C116.374 16.0228 116.245 15.764 116.038 15.5742C115.831 15.3844 115.538 15.255 115.158 15.186C114.778 15.117 114.278 15.0653 113.657 15.0308V14.4355H122.43V15.0308C121.809 15.048 121.309 15.0998 120.929 15.186C120.549 15.255 120.256 15.3844 120.049 15.5742C119.842 15.764 119.704 16.0314 119.635 16.3765C119.566 16.7043 119.531 17.1356 119.531 17.6704V30.8169C119.531 31.3517 119.566 31.7917 119.635 32.1367C119.721 32.4645 119.868 32.7233 120.075 32.9131C120.282 33.1029 120.575 33.2409 120.955 33.3271C121.334 33.3962 121.826 33.4393 122.43 33.4565V34H113.657V33.4565C114.278 33.4393 114.778 33.3962 115.158 33.3271C115.538 33.2409 115.822 33.1029 116.012 32.9131C116.219 32.7233 116.357 32.4645 116.426 32.1367C116.495 31.8089 116.53 31.369 116.53 30.8169V17.6704ZM140.649 20.6982C140.511 20.2152 140.373 19.8011 140.235 19.4561C140.097 19.0938 139.95 18.7746 139.795 18.4985C139.657 18.2052 139.493 17.9465 139.303 17.7222C139.13 17.4979 138.923 17.265 138.682 17.0234C138.095 16.4196 137.422 15.971 136.663 15.6777C135.921 15.3672 135.128 15.2119 134.282 15.2119C133.213 15.2119 132.238 15.4189 131.358 15.833C130.496 16.2471 129.754 16.8423 129.133 17.6187C128.529 18.3778 128.063 19.3008 127.735 20.3877C127.407 21.4746 127.243 22.6823 127.243 24.0107C127.243 25.736 127.476 27.2456 127.942 28.5396C128.408 29.8335 129.072 30.8428 129.935 31.5674C131.229 32.6025 132.773 33.1201 134.567 33.1201C135.792 33.1201 136.922 32.8872 137.957 32.4214C138.992 31.9556 140.062 31.1965 141.166 30.144L141.684 30.6616C140.787 31.8521 139.639 32.7751 138.242 33.4307C136.862 34.0863 135.326 34.4141 133.635 34.4141C132.169 34.4141 130.832 34.1725 129.624 33.6895C128.417 33.2064 127.381 32.5335 126.519 31.6709C125.656 30.791 124.983 29.7386 124.5 28.5137C124.034 27.2887 123.802 25.9258 123.802 24.4248C123.802 22.7168 124.095 21.1813 124.681 19.8184C125.268 18.4382 126.131 17.2822 127.269 16.3506C128.166 15.626 129.176 15.0653 130.297 14.6685C131.419 14.2544 132.549 14.0474 133.687 14.0474C135.154 14.0474 136.603 14.2889 138.035 14.772C138.518 14.9445 138.906 15.0308 139.199 15.0308C139.493 15.0308 139.743 14.9445 139.95 14.772C140.174 14.5994 140.33 14.3579 140.416 14.0474H141.037L141.322 20.6982H140.649Z" fill="#002060"/>
<path d="M25.5078 10.5547C25.3125 10.8411 25.1302 11.1016 24.9609 11.3359C24.7917 11.5703 24.6745 11.7461 24.6094 11.8633C24.5443 11.9805 24.4466 12.1823 24.3164 12.4688C24.1862 12.7422 24.0495 13.0547 23.9062 13.4062C23.099 15.3724 22.5651 16.5703 22.3047 17C22.2917 17 22.2656 17.0391 22.2266 17.1172C22.1745 16.9609 22.1354 16.8568 22.1094 16.8047C21.7578 15.6849 21.4714 14.8971 21.25 14.4414C21.0417 13.9727 20.7878 13.5885 20.4883 13.2891C20.1888 12.9896 19.7396 12.6641 19.1406 12.3125C18.2031 11.7526 17.2461 11.4727 16.2695 11.4727C15.2799 11.4727 14.401 11.6419 13.6328 11.9805C12.8776 12.319 12.2852 12.8008 11.8555 13.4258C11.4388 14.0508 11.2305 14.7474 11.2305 15.5156C11.2305 16.2708 11.3997 16.9349 11.7383 17.5078C12.0898 18.0807 12.6432 18.582 13.3984 19.0117C14.1667 19.4414 15.0977 19.7865 16.1914 20.0469L19.4727 20.8086C21.0872 21.1862 22.3763 21.6875 23.3398 22.3125C24.3034 22.9375 25.0651 23.7513 25.625 24.7539C26.2109 25.7695 26.5039 26.9284 26.5039 28.2305C26.5039 29.7018 26.1328 31.0104 25.3906 32.1562C24.6615 33.3021 23.6263 34.2005 22.2852 34.8516C20.957 35.4896 19.4596 35.8086 17.793 35.8086C16.4779 35.8086 14.9284 35.5807 13.1445 35.125L10.8984 34.5586C9.92188 34.3503 9.19271 34.2461 8.71094 34.2461C8.15104 34.2461 7.70182 34.2982 7.36328 34.4023C7.03776 34.5065 6.63411 34.7083 6.15234 35.0078L5.99609 34.7148C6.59505 33.8164 7.2526 32.651 7.96875 31.2188C8.6849 29.7734 9.16016 28.6211 9.39453 27.7617L9.74609 27.8789C10.0195 29.9362 10.8333 31.5247 12.1875 32.6445C13.5547 33.7643 15.3516 34.3242 17.5781 34.3242C18.6589 34.3242 19.6354 34.1484 20.5078 33.7969C21.3802 33.4453 22.0573 32.9505 22.5391 32.3125C23.0208 31.6615 23.2617 30.9193 23.2617 30.0859C23.2617 29.1484 23.0339 28.2956 22.5781 27.5273C22.1354 26.7591 21.4974 26.1406 20.6641 25.6719C20 25.2812 19.2904 24.9753 18.5352 24.7539C17.793 24.5195 16.543 24.2396 14.7852 23.9141C13.6393 23.6797 12.6758 23.4128 11.8945 23.1133C11.1133 22.8138 10.4688 22.4492 9.96094 22.0195C9.45312 21.5898 9.02344 21.0625 8.67188 20.4375C8.08594 19.3698 7.79297 18.1849 7.79297 16.8828C7.79297 15.4896 8.13151 14.2721 8.80859 13.2305C9.48568 12.1758 10.4492 11.362 11.6992 10.7891C12.9492 10.2161 14.3815 9.92969 15.9961 9.92969C16.8164 9.92969 17.6172 9.99479 18.3984 10.125C19.1797 10.2552 20.0846 10.4701 21.1133 10.7695C22.0378 11.0039 22.7409 11.1211 23.2227 11.1211C23.8477 11.1211 24.5443 10.9062 25.3125 10.4766L25.5078 10.5547ZM26.7383 11.3555L26.543 11.6875C26.0872 12.4427 25.638 13.2956 25.1953 14.2461C24.8047 15.0273 24.4401 15.776 24.1016 16.4922C23.763 17.2083 23.5807 17.5794 23.5547 17.6055L23.0664 17.3906L24.7852 13.875L26.2305 11.1211L26.7383 11.3555ZM21.0352 15.2812C19.5898 13.7578 18.0534 12.9961 16.4258 12.9961C15.4232 12.9961 14.5964 13.2891 13.9453 13.875C13.3073 14.4479 12.9883 15.1706 12.9883 16.043C12.9883 16.5768 13.1185 17.0586 13.3789 17.4883C13.6523 17.9049 14.1732 18.4062 14.9414 18.9922L15.0977 19.1289L15.0195 19.2461C13.2878 18.4909 12.4219 17.3841 12.4219 15.9258C12.4219 14.8971 12.7865 14.0703 13.5156 13.4453C14.2578 12.8073 15.2148 12.4883 16.3867 12.4883C17.5195 12.4883 18.5026 12.7292 19.3359 13.2109C20.1693 13.6797 20.7747 14.3438 21.1523 15.2031L21.0352 15.2812ZM25.5078 23.0352C27.2917 24.3893 28.1836 26.2318 28.1836 28.5625C28.1836 29.7865 27.9297 30.9453 27.4219 32.0391C26.9141 33.1198 26.2044 34.0638 25.293 34.8711C24.3815 35.6784 23.3073 36.3099 22.0703 36.7656C20.8464 37.2214 19.5638 37.4492 18.2227 37.4492C16.9987 37.4492 15.7357 37.3125 14.4336 37.0391L11.3086 36.2383C10.5924 36.082 9.81771 36.0039 8.98438 36.0039C8.25521 36.0039 7.57812 36.1471 6.95312 36.4336L6.69922 35.8477C7.05078 35.6784 7.3763 35.5612 7.67578 35.4961C7.97526 35.431 8.34635 35.3984 8.78906 35.3984C9.58333 35.3984 10.4622 35.5221 11.4258 35.7695L14.4336 36.4727C15.5404 36.7461 16.8034 36.8828 18.2227 36.8828C19.4727 36.8828 20.6641 36.668 21.7969 36.2383C22.9427 35.7956 23.9518 35.1901 24.8242 34.4219C25.6966 33.6406 26.3802 32.7357 26.875 31.707C27.3698 30.6784 27.6172 29.6172 27.6172 28.5234C27.6172 26.4271 26.9141 24.6367 25.5078 23.1523V23.0352ZM11.582 28.6406C11.8555 29.8906 12.2982 30.9062 12.9102 31.6875C13.5221 32.4557 14.375 33.1068 15.4688 33.6406V33.7969C14.1667 33.3932 13.1771 32.8008 12.5 32.0195C11.8229 31.2253 11.3477 30.138 11.0742 28.7578L11.582 28.6406ZM9.17969 22.3125L9.82422 22.6836C9.99349 22.9831 10.2279 23.2435 10.5273 23.4648C10.8268 23.6732 11.2044 23.8685 11.6602 24.0508C12.1289 24.2201 12.7865 24.4023 13.6328 24.5977L16.7383 25.3984C17.9492 25.6849 18.8672 25.9323 19.4922 26.1406C20.1302 26.3359 20.6445 26.5378 21.0352 26.7461C21.4258 26.9544 21.7383 27.2018 21.9727 27.4883C22.207 27.7747 22.3958 28.1198 22.5391 28.5234L22.3828 28.6016C21.9531 28.0938 21.5495 27.7161 21.1719 27.4688C20.7943 27.2214 20.2995 27 19.6875 26.8047C19.0755 26.6094 18.0273 26.3294 16.543 25.9648C14.9674 25.6003 13.776 25.3008 12.9688 25.0664C12.1615 24.832 11.5104 24.5977 11.0156 24.3633C10.5339 24.1289 10.1497 23.862 9.86328 23.5625C9.4987 23.1589 9.27083 22.7422 9.17969 22.3125Z" fill="#FFFF00"/>
</g>
<defs>
<clipPath id="clip0_17_55">
<rect width="152" height="48" fill="white"/>
</clipPath>
</defs>
</svg>
